#N canvas 2 268 738 330 12;
#X obj 344 82 s pd;
#X obj 344 31 loadbang;
#X msg 344 55 dsp 1;
#X obj 152 134 dac~;
#X obj 152 86 osc~ 440;
#X obj 152 110 *~ 0.1;
#X obj 240 91 loadbang;
#X obj 241 141 metro 1000;
#X msg 240 168 patch1 0;
#X obj 564 191 print patch1;
#X obj 491 27 r blup;
#X obj 506 91 print patch1;
#X obj 239 255 s toBfWeb;
#X obj 559 148 r toBfWeb;
#X obj 240 193 list append;
#X obj 491 51 t b b;
#X connect 1 0 2 0;
#X connect 2 0 0 0;
#X connect 4 0 5 0;
#X connect 5 0 3 0;
#X connect 5 0 3 1;
#X connect 6 0 7 0;
#X connect 7 0 8 0;
#X connect 8 0 14 0;
#X connect 10 0 15 0;
#X connect 13 0 9 0;
#X connect 14 0 12 0;
#X connect 15 1 11 0;
