#N canvas 2 328 450 300 12;
#X obj 344 82 s pd;
#X obj 344 31 loadbang;
#X msg 344 55 dsp 1;
#X obj 152 134 dac~;
#X obj 152 110 *~ 0.1;
#X obj 152 86 osc~ 600;
#X obj 240 111 loadbang;
#X obj 241 141 metro 1000;
#X msg 240 168 patch2 0;
#X obj 230 239 s toBfWeb;
#X obj 247 207 list append;
#X obj 24 166 r toBfWeb;
#X obj 24 190 print patch2;
#X connect 1 0 2 0;
#X connect 2 0 0 0;
#X connect 4 0 3 0;
#X connect 4 0 3 1;
#X connect 5 0 4 0;
#X connect 6 0 7 0;
#X connect 7 0 8 0;
#X connect 8 0 10 0;
#X connect 10 0 9 0;
#X connect 11 0 12 0;
